<svg width="48" height="48" viewBox="0 0 48 48" fill="none" xmlns="http://www.w3.org/2000/svg">
<path d="M24 42H34.5V45H24V42ZM24 36H45V39H24V36ZM24 30H45V33H24V30ZM6 30V33H12.879L3 42.879L5.121 45L15 35.121V42H18V30H6ZM42 12H24L18.879 6.879C18.3165 6.31635 17.5536 6.00017 16.758 6H6C5.20435 6 4.44129 6.31607 3.87868 6.87868C3.31607 7.44129 3 8.20435 3 9V27H6V9H16.758L21.879 14.121L22.758 15H42V27H45V15C45 14.2044 44.6839 13.4413 44.1213 12.8787C43.5587 12.3161 42.7957 12 42 12Z" fill="white"/>
</svg>
