<svg width="116" height="116" viewBox="0 0 116 116" fill="none" xmlns="http://www.w3.org/2000/svg">
<path fill-rule="evenodd" clip-rule="evenodd" d="M96.6666 80.0953V41.4286L69.0475 13.8096H41.4285C38.4985 13.8096 35.6885 14.9735 33.6166 17.0453C31.5448 19.1172 30.3809 21.9272 30.3809 24.8572V80.0953C30.3809 83.0253 31.5448 85.8353 33.6166 87.9071C35.6885 89.979 38.4985 91.1429 41.4285 91.1429H85.619C88.549 91.1429 91.359 89.979 93.4308 87.9071C95.5026 85.8353 96.6666 83.0253 96.6666 80.0953Z" stroke="white" stroke-width="2" stroke-linecap="round" stroke-linejoin="round"/>
<path d="M30.3806 24.8572C27.4506 24.8572 24.6406 26.0211 22.5688 28.093C20.4969 30.1648 19.333 32.9748 19.333 35.9048V91.1429C19.333 94.0729 20.4969 96.8829 22.5688 98.9548C24.6406 101.027 27.4506 102.191 30.3806 102.191H74.5711C77.5011 102.191 80.3111 101.027 82.383 98.9548C84.4548 96.8829 85.6187 94.0729 85.6187 91.1429M69.0473 13.8096V30.381C69.0473 33.311 70.2112 36.121 72.2831 38.1928C74.3549 40.2647 77.1649 41.4286 80.0949 41.4286H96.6663L69.0473 13.8096Z" stroke="white" stroke-width="2" stroke-linecap="round" stroke-linejoin="round"/>
</svg>
