<svg width="44" height="44" viewBox="0 0 44 44" fill="none" xmlns="http://www.w3.org/2000/svg">
<g clip-path="url(#clip0_1906_678)">
<path d="M26.1445 2.12158L29.3675 5.34458L25.2236 9.48938L29.3675 13.6333L26.1445 16.8563L22.0002 12.7124L17.8558 16.8563L14.6328 13.6333L18.7767 9.48894L14.6328 5.34458L17.8558 2.12158L22.0002 6.2655L26.1445 2.12158Z" fill="#06132D"/>
<path d="M10.5798 12.8511L0.608533 18.322C-0.204147 18.7673 -0.204147 19.4902 0.608533 19.936L20.5295 30.8678C21.3418 31.3135 22.6583 31.3135 23.4705 30.8678L43.3915 19.9364C44.2042 19.4907 44.2042 18.7678 43.3915 18.3225L33.4356 12.859L33.4299 12.8801L31.4112 14.9745L38.9823 19.129L22 28.4482L5.01865 19.129L12.5559 14.993L10.5798 12.8511ZM2.07989 23.2571L0.608533 24.064C-0.204147 24.5098 -0.204147 25.2327 0.608533 25.678L20.5295 36.6102C21.3418 37.0559 22.6583 37.0559 23.4705 36.6102L43.3915 25.6784C44.2037 25.2327 44.2033 24.5102 43.3906 24.0645L41.9201 23.2575L38.9796 24.8706L38.9814 24.8714L22 34.1902L5.01777 24.871L5.01953 24.8701L2.07989 23.2571Z" fill="#06132D"/>
</g>
<defs>
<clipPath id="clip0_1906_678">
<rect width="44" height="44" fill="white"/>
</clipPath>
</defs>
</svg>
