<svg width="44" height="44" viewBox="0 0 44 44" fill="none" xmlns="http://www.w3.org/2000/svg">
<g clip-path="url(#clip0_1906_684)">
<path d="M10.5798 12.8511L0.608533 18.322C-0.204147 18.7673 -0.204147 19.4902 0.608533 19.936L20.5295 30.8678C21.3418 31.3135 22.6583 31.3135 23.4705 30.8678L43.3915 19.9364C44.2042 19.4907 44.2042 18.7678 43.3915 18.3225L33.4356 12.859L33.4299 12.8801L31.4112 14.9745L38.9823 19.129L22 28.4482L5.01865 19.129L12.5559 14.993L10.5798 12.8511ZM2.07989 23.2571L0.608533 24.064C-0.204147 24.5098 -0.204147 25.2327 0.608533 25.678L20.5295 36.6102C21.3418 37.0559 22.6583 37.0559 23.4705 36.6102L43.3915 25.6784C44.2037 25.2327 44.2033 24.5102 43.3906 24.0645L41.9201 23.2575L38.9796 24.8706L38.9814 24.8714L22 34.1902L5.01777 24.871L5.01953 24.8701L2.07989 23.2571Z" fill="#06132D"/>
</g>
<path d="M21.0123 6.79945L21.0122 6.79939C20.8907 6.67462 20.8227 6.50733 20.8227 6.33315C20.8227 6.15898 20.8907 5.99169 21.0122 5.86692L21.1913 6.04134L21.0125 5.86667C21.0729 5.80473 21.1452 5.75554 21.225 5.72201C21.3048 5.68847 21.3906 5.67125 21.4771 5.67139C21.5637 5.67152 21.6494 5.68899 21.7291 5.72278C21.8087 5.75652 21.8807 5.80585 21.941 5.86786C21.9411 5.86794 21.9411 5.86801 21.9412 5.86809L21.7618 6.04222L21.0123 6.79945ZM21.0123 6.79945L25.1061 10.9999M21.0123 6.79945L21.0125 15.1985M26.2961 10.6946C26.3757 10.7763 26.4203 10.8859 26.4203 11C26.4203 11.1141 26.3757 11.2236 26.2961 11.3053M26.2961 10.6946L21.1913 6.62497L25.4552 11M26.2961 10.6946L26.4751 10.5201M26.2961 10.6946L26.4751 10.5201L26.4751 10.5201M26.2961 11.3053L21.7618 15.9577C21.7247 15.9958 21.6804 16.0261 21.6314 16.0468C21.5824 16.0674 21.5297 16.0781 21.4766 16.0781C21.4234 16.0781 21.3707 16.0674 21.3218 16.0468C21.2728 16.0261 21.2284 15.9958 21.1913 15.9577C21.115 15.8796 21.0723 15.7747 21.0723 15.6655C21.0723 15.5562 21.115 15.4513 21.1913 15.3732L25.4552 11M26.2961 11.3053L26.4751 11.4798M26.2961 11.3053L26.4751 11.4798L26.4751 11.4798M25.4552 11L25.2762 10.8254L25.1061 10.9999M25.4552 11L25.2762 11.1744L25.1061 10.9999M25.1061 10.9999L21.0125 15.1985M21.0125 15.1985L21.0123 15.1987L21.1912 15.3731L21.0125 15.1985ZM26.4751 11.4798C26.6002 11.3514 26.6703 11.1792 26.6703 11C26.6703 10.8207 26.6002 10.6485 26.4751 10.5201M26.4751 11.4798L21.9409 16.1321M26.4751 10.5201L21.0123 16.1322C21.0727 16.1942 21.1449 16.2435 21.2245 16.2771C21.3043 16.3108 21.39 16.3281 21.4766 16.3281C21.5631 16.3281 21.6488 16.3108 21.7286 16.2771C21.8083 16.2434 21.8805 16.1941 21.9409 16.1321M21.9409 16.1321L21.7623 15.9582L21.9408 16.1322L21.9409 16.1321ZM17.5123 16.1322C17.5727 16.1942 17.6448 16.2435 17.7245 16.2771C17.8043 16.3108 17.89 16.3281 17.9766 16.3281C18.0631 16.3281 18.1488 16.3108 18.2286 16.2771C18.3083 16.2434 18.3805 16.1941 18.4409 16.1321L22.9751 11.4798C22.9751 11.4798 22.9751 11.4798 22.9751 11.4798C23.1002 11.3514 23.1703 11.1792 23.1703 11C23.1703 10.8207 23.1002 10.6485 22.9751 10.5201C22.9751 10.5201 22.9751 10.5201 22.9751 10.5201L18.4412 5.86809L18.2618 6.04222L18.4408 5.86773L18.441 5.86788C18.3807 5.80586 18.3087 5.75652 18.2291 5.72278C18.1494 5.68899 18.0637 5.67152 17.9771 5.67139C17.8906 5.67125 17.8048 5.68847 17.725 5.72201C17.6452 5.75554 17.5729 5.80473 17.5125 5.86667L17.6913 6.04134L17.5122 5.86692C17.3907 5.99169 17.3227 6.15898 17.3227 6.33315C17.3227 6.50733 17.3907 6.67462 17.5122 6.79939L17.5123 6.79945L17.6913 15.9577M17.5123 16.1322C17.5123 16.1322 17.5122 16.1322 17.5122 16.1321L17.6913 15.9577M17.5123 16.1322C17.5124 16.1323 17.5124 16.1323 17.5125 16.1324L17.6913 15.9577M17.5123 16.1322C17.3905 16.0074 17.3223 15.8399 17.3223 15.6655C17.3223 15.491 17.3905 15.3234 17.5124 15.1986L17.5123 15.1987L17.6913 15.3732M17.6913 15.9577C17.615 15.8796 17.5723 15.7747 17.5723 15.6655C17.5723 15.5562 17.615 15.4513 17.6913 15.3732M17.6913 15.3732L17.5125 15.1985M17.6913 15.3732L17.5125 15.1985M17.5125 15.1985L21.6061 10.9999M17.5125 15.1985L21.6061 10.9999M21.6061 10.9999L21.7762 11.1744L21.9552 11L21.7762 10.8254L21.6061 10.9999Z" fill="#06132D" stroke="#06132D" stroke-width="0.5"/>
<defs>
<clipPath id="clip0_1906_684">
<rect width="44" height="44" fill="white"/>
</clipPath>
</defs>
</svg>
