<svg width="26" height="26" viewBox="0 0 26 26" fill="none" xmlns="http://www.w3.org/2000/svg">
<path d="M13 0.75C6.23516 0.75 0.75 6.23516 0.75 13C0.75 19.7648 6.23516 25.25 13 25.25C19.7648 25.25 25.25 19.7648 25.25 13C25.25 6.23516 19.7648 0.75 13 0.75ZM18.25 13.6562C18.25 13.7766 18.1516 13.875 18.0312 13.875H13.875V18.0312C13.875 18.1516 13.7766 18.25 13.6562 18.25H12.3438C12.2234 18.25 12.125 18.1516 12.125 18.0312V13.875H7.96875C7.84844 13.875 7.75 13.7766 7.75 13.6562V12.3438C7.75 12.2234 7.84844 12.125 7.96875 12.125H12.125V7.96875C12.125 7.84844 12.2234 7.75 12.3438 7.75H13.6562C13.7766 7.75 13.875 7.84844 13.875 7.96875V12.125H18.0312C18.1516 12.125 18.25 12.2234 18.25 12.3438V13.6562Z" fill="white"/>
</svg>
