<svg width="108" height="93" viewBox="0 0 108 93" fill="none" xmlns="http://www.w3.org/2000/svg">
<path d="M51.4286 77.5C51.4257 71.3981 52.9606 65.3948 55.8904 60.0497C58.8202 54.7046 63.0493 50.1917 68.1837 46.9318C73.318 43.6719 79.1904 41.771 85.2533 41.4064C91.3163 41.0418 97.3724 42.2253 102.857 44.8467V0H0V82.6667H51.84C51.5829 80.9617 51.4286 79.2567 51.4286 77.5ZM10.2857 10.3333L51.4286 36.1667L92.5714 10.3333V20.6667L51.4286 46.5L10.2857 20.6667V10.3333ZM78.8914 93L60.6857 74.71L67.9371 67.425L78.84 78.3783L100.646 56.4717L108 63.7567L78.8914 93Z" fill="white"/>
</svg>
