<svg width="43" height="33" viewBox="0 0 43 33" fill="none" xmlns="http://www.w3.org/2000/svg">
<path fill-rule="evenodd" clip-rule="evenodd" d="M33.8679 9.00006H34.0179C35.1979 9.00025 36.3663 9.23327 37.4561 9.68578C38.5459 10.1383 39.5358 10.8014 40.3689 11.6371C42.0539 13.326 43.0002 15.6143 43.0002 18.0001C43.0002 20.3858 42.0539 22.6741 40.3689 24.3631C39.5358 25.1987 38.5459 25.8618 37.4561 26.3143C36.3663 26.7668 35.1979 26.9999 34.0179 27.0001H28.0329V24.0001H34.0179C35.5628 23.9309 37.0215 23.2686 38.0902 22.151C39.159 21.0333 39.7555 19.5465 39.7555 18.0001C39.7555 16.4536 39.159 14.9668 38.0902 13.8491C37.0215 12.7315 35.5628 12.0692 34.0179 12.0001H31.2759L30.9069 9.42906C30.6817 7.81828 29.9371 6.325 28.7859 5.17602C27.6348 4.02704 26.1401 3.28516 24.5289 3.06306C22.9167 2.84283 21.2769 3.15761 19.8609 3.9591C18.4448 4.76059 17.3309 6.00452 16.6899 7.50006L15.6909 9.78606L13.2639 9.21906C12.7091 9.08145 12.1404 9.00797 11.5689 9.00006C9.58288 9.00006 7.67788 9.78905 6.27688 11.1961C5.23279 12.2459 4.52237 13.581 4.23495 15.0335C3.94752 16.4859 4.09591 17.991 4.66147 19.3593C5.22703 20.7277 6.18451 21.8983 7.41353 22.724C8.64255 23.5498 10.0883 23.9937 11.5689 24.0001H19.0509V27.0001H11.5689C10.0829 27.0134 8.61122 26.71 7.25176 26.1099C5.89231 25.5098 4.67634 24.6269 3.68488 23.5201C2.1858 21.8506 1.26056 19.7451 1.04463 17.5118C0.828693 15.2785 1.33341 13.0348 2.48488 11.1091C3.24753 9.83323 4.27259 8.73402 5.49214 7.88427C6.71168 7.03452 8.09788 6.45362 9.55888 6.18006C11.0169 5.91006 12.5199 5.94905 13.9629 6.30305C14.8721 4.2211 16.4346 2.49185 18.414 1.37685C20.3934 0.26184 22.6821 -0.178279 24.9339 0.123055C27.1866 0.427888 29.2782 1.45987 30.8907 3.06214C32.5033 4.66441 33.5486 6.74935 33.8679 9.00006ZM28.8789 20.5591L24.9369 16.6201V32.9281H21.9549V16.7281L18.1209 20.5621L15.9999 18.4381L22.4379 12.0001H24.5619L30.9999 18.4381L28.8789 20.5591V20.5591Z" fill="white"/>
</svg>
