<svg width="48" height="38" viewBox="0 0 48 38" fill="none" xmlns="http://www.w3.org/2000/svg">
<path d="M42.75 1.30005C42.2343 0.966396 41.6444 0.764542 41.0324 0.712232C40.4204 0.659922 39.8049 0.758757 39.24 1.00005L20.73 8.29005C20.2918 8.4684 19.8231 8.56009 19.35 8.56005H7.5C6.50544 8.56005 5.55161 8.95514 4.84835 9.6584C4.14509 10.3617 3.75 11.3155 3.75 12.3101V12.6101H0V21.6101H3.75V22C3.7735 22.9789 4.17894 23.9098 4.87967 24.5937C5.5804 25.2776 6.52084 25.6603 7.5 25.6601L12 35.2001C12.3047 35.8425 12.7844 36.3859 13.3841 36.768C13.9837 37.1501 14.679 37.3553 15.39 37.3601H17.28C18.2694 37.3521 19.2155 36.9536 19.9123 36.2512C20.6091 35.5487 21 34.5994 21 33.6101V26.0201L39.24 33.3101C39.6886 33.4886 40.1671 33.5802 40.65 33.5801C41.3991 33.568 42.1286 33.3387 42.75 32.9201C43.2434 32.5869 43.6504 32.141 43.9374 31.6194C44.2243 31.0977 44.3829 30.5152 44.4 29.9201V4.39005C44.3973 3.7796 44.2455 3.17905 43.958 2.64055C43.6704 2.10206 43.2558 1.6419 42.75 1.30005ZM17.25 12.3101V22H7.5V12.3101H17.25ZM17.25 33.6101H15.36L11.67 25.6601H17.25V33.6101ZM22.11 22.45C21.7538 22.268 21.3824 22.1174 21 22V12.1C21.3787 12.0219 21.7501 11.9115 22.11 11.7701L40.65 4.39005V29.8301L22.11 22.45ZM44.49 13.3601V20.8601C45.4846 20.8601 46.4384 20.465 47.1417 19.7617C47.8449 19.0584 48.24 18.1046 48.24 17.1101C48.24 16.1155 47.8449 15.1617 47.1417 14.4584C46.4384 13.7551 45.4846 13.3601 44.49 13.3601Z" fill="white"/>
</svg>
